<?xml version="1.0" standalone="no"?>
<!DOCTYPE svg PUBLIC "-//W3C//DTD SVG 20010904//EN"
 "http://www.w3.org/TR/2001/REC-SVG-20010904/DTD/svg10.dtd">
<svg version="1.0" xmlns="http://www.w3.org/2000/svg"
 width="1080.000000pt" height="1080.000000pt" viewBox="0 0 1080.000000 1080.000000"
 preserveAspectRatio="xMidYMid meet">

<g transform="translate(0.000000,1080.000000) scale(0.100000,-0.100000)"
fill="#000000" stroke="none">
<path d="M5434 8416 c-11 -28 4 -48 33 -44 22 2 28 8 28 28 0 20 -6 26 -28 28
-18 2 -29 -2 -33 -12z"/>
<path d="M4615 8328 c-16 -6 -59 -18 -95 -27 -77 -20 -80 -28 -52 -115 10 -33
29 -94 42 -133 12 -40 27 -73 33 -73 28 0 217 65 217 75 0 5 -4 16 -9 24 -8
12 -17 12 -63 -2 -100 -31 -103 -31 -116 -2 -19 42 -15 52 25 60 50 9 95 33
90 48 -6 19 -53 20 -92 1 -32 -15 -38 -15 -51 -2 -8 8 -16 24 -19 36 -3 18 3
26 28 37 18 8 48 17 68 20 41 6 64 27 55 50 -6 17 -18 18 -61 3z"/>
<path d="M5165 8332 c-41 -14 -66 -38 -76 -75 -14 -52 4 -109 43 -132 33 -19
96 -22 127 -5 27 14 29 -8 3 -41 -20 -24 -62 -30 -120 -15 -25 6 -33 4 -38 -9
-13 -32 21 -50 96 -50 54 0 74 4 97 21 35 26 40 51 42 192 l1 112 -30 0 c-16
0 -30 -4 -30 -9 0 -5 -17 -3 -37 5 -42 14 -49 15 -78 6z m105 -84 c13 -25 13
-31 0 -55 -38 -69 -148 -22 -120 51 11 29 24 35 70 33 26 -2 38 -9 50 -29z"/>
<path d="M5422 8253 c-6 -38 -14 -92 -17 -120 l-6 -53 34 0 34 0 10 103 c10
107 4 137 -28 137 -12 0 -19 -17 -27 -67z"/>
<path d="M4866 8295 c-21 -11 -32 -12 -36 -5 -4 7 -18 8 -34 4 -25 -6 -27 -10
-23 -38 3 -17 10 -65 16 -105 12 -81 19 -95 47 -89 17 3 19 14 19 85 0 84 5
96 41 107 36 11 62 -21 73 -92 12 -74 16 -82 42 -82 21 0 22 5 19 90 -2 65
-21 114 -48 129 -29 16 -82 13 -116 -4z"/>
<path d="M5567 8273 c-3 -16 -13 -62 -22 -103 -18 -85 -15 -100 19 -100 27 0
36 16 36 63 0 49 34 97 68 97 16 0 37 -8 46 -19 15 -17 16 -26 5 -84 -14 -76
-8 -100 23 -95 18 2 24 10 26 38 2 19 9 49 17 67 20 42 19 59 -6 99 -22 37
-65 51 -118 39 -24 -5 -31 -3 -31 9 0 11 -9 16 -29 16 -23 0 -30 -5 -34 -27z"/>
<path d="M5877 8180 c-55 -44 -58 -136 -6 -186 24 -23 38 -28 82 -29 39 0 52
4 52 15 0 8 -14 17 -35 21 -33 7 -80 48 -80 71 0 13 37 4 107 -24 68 -28 88
-16 80 51 -7 66 -49 101 -121 101 -38 0 -60 -6 -79 -20z m113 -35 c21 -11 30
-23 30 -39 0 -23 -2 -24 -37 -14 -21 6 -46 15 -56 20 -18 9 -18 11 -1 29 21
23 27 23 64 4z"/>
<path d="M4069 8101 l-24 -19 59 -114 c85 -165 75 -159 182 -103 49 25 92 49
96 53 5 5 2 17 -6 27 -14 19 -16 19 -80 -15 -41 -21 -70 -30 -76 -24 -12 12
-52 84 -87 157 -15 31 -30 57 -34 57 -4 0 -17 -9 -30 -19z"/>
<path d="M6150 8073 c-14 -9 -26 -17 -28 -19 -2 -1 -9 -24 -16 -50 -19 -74 6
-123 82 -156 40 -18 82 -17 82 2 0 25 -15 40 -40 40 -34 0 -91 45 -83 65 8 22
21 19 101 -22 62 -32 74 -36 82 -23 15 23 11 103 -5 124 -41 54 -126 73 -175
39z m120 -53 c21 -21 27 -60 10 -60 -6 0 -33 11 -61 26 -42 21 -48 28 -39 40
18 20 67 17 90 -6z"/>
<path d="M3920 8015 c-10 -12 -11 -43 -6 -125 6 -87 4 -110 -6 -110 -7 0 -56
18 -108 40 l-95 39 -18 -21 c-20 -24 -17 -32 57 -123 23 -27 51 -66 64 -87 12
-20 29 -39 38 -42 14 -6 54 13 54 25 0 3 -17 26 -37 50 -35 41 -63 82 -63 93
0 3 30 -7 68 -21 111 -42 108 -44 104 65 -3 92 -3 93 16 74 10 -10 34 -40 51
-66 25 -35 38 -46 54 -44 30 4 32 30 5 69 -50 73 -149 199 -157 199 -5 0 -14
-7 -21 -15z"/>
<path d="M6370 7879 c-33 -51 -60 -95 -60 -99 0 -13 54 -32 58 -21 2 7 22 34
44 62 40 50 41 51 83 46 34 -5 44 -3 49 10 9 21 -11 43 -40 43 -14 0 -24 6
-24 15 0 12 -28 35 -44 35 -3 0 -33 -41 -66 -91z"/>
<path d="M6566 7634 c-19 -18 -19 -20 -6 -45 14 -25 42 -24 65 1 17 19 17 21
0 40 -22 24 -38 25 -59 4z"/>
<path d="M6865 7574 c-70 -38 -88 -70 -86 -153 1 -63 26 -110 75 -140 43 -27
73 -27 81 0 4 11 5 21 3 23 -1 1 -20 9 -41 19 -43 19 -73 73 -63 113 12 45 58
86 99 87 55 1 86 -26 127 -113 11 -22 45 -19 47 5 4 32 -39 106 -79 138 -46
37 -117 46 -163 21z"/>
<path d="M3654 7476 c-12 -30 1 -61 25 -64 23 -4 51 19 51 39 0 30 -66 52 -76
25z"/>
<path d="M3387 7413 c-2 -4 -8 -22 -11 -39 -4 -20 -15 -34 -27 -37 -28 -7 -35
-35 -13 -52 11 -8 52 -38 92 -66 l74 -52 21 23 22 22 -35 26 c-88 67 -96 82
-79 140 4 15 -36 48 -44 35z"/>
<path d="M7024 7280 c-11 -4 -33 -23 -48 -41 -25 -29 -28 -39 -24 -88 4 -49 9
-59 43 -88 44 -38 98 -44 143 -16 43 27 52 43 52 101 0 100 -82 166 -166 132z
m103 -79 c35 -45 -3 -111 -63 -111 -29 0 -37 5 -50 33 -15 31 -15 36 0 65 22
43 84 51 113 13z"/>
<path d="M3265 7188 c-84 -51 -91 -164 -13 -216 67 -44 150 -15 184 65 21 48
18 83 -5 83 -13 0 -21 -9 -26 -29 -13 -59 -95 -113 -95 -62 0 11 4 21 8 23 5
2 23 29 41 61 23 40 30 62 23 69 -16 16 -94 20 -117 6z m57 -44 c8 -7 -19 -74
-37 -93 -18 -19 -45 2 -45 34 0 35 62 79 82 59z"/>
<path d="M7215 7018 c-27 -10 -72 -26 -98 -34 -53 -17 -64 -32 -48 -63 l11
-20 69 24 c85 31 97 31 117 0 27 -41 8 -68 -68 -95 -77 -28 -82 -32 -73 -60 8
-25 38 -24 115 5 50 19 84 10 95 -25 11 -35 -17 -63 -89 -89 -59 -20 -66 -25
-60 -45 10 -35 20 -39 55 -23 19 9 45 19 59 22 14 4 40 16 58 27 29 18 32 24
32 71 0 42 -5 56 -27 80 -23 23 -28 38 -28 77 0 38 -5 54 -24 74 -15 16 -25
39 -25 58 -1 17 -5 32 -11 34 -5 1 -32 -7 -60 -18z"/>
<path d="M3173 6942 c-34 -5 -81 -58 -89 -98 -3 -19 -4 -38 0 -41 3 -3 -1 -11
-9 -17 -8 -6 -16 -21 -17 -34 -3 -21 9 -28 142 -78 134 -51 146 -53 157 -37
21 28 15 39 -29 58 -24 11 -44 20 -46 21 -2 1 8 19 23 39 27 41 32 80 13 120
-18 39 -96 75 -145 67z m75 -82 c31 -26 27 -76 -8 -102 -22 -16 -30 -17 -58
-7 -54 18 -66 59 -31 103 25 31 64 34 97 6z"/>
<path d="M3041 6612 c-63 -52 -62 -171 3 -211 53 -33 106 -28 148 13 61 60 62
143 2 196 -47 41 -106 42 -153 2z m113 -53 c36 -28 36 -82 1 -105 -47 -31
-115 6 -115 62 0 25 43 64 70 64 10 0 29 -9 44 -21z"/>
<path d="M7380 6560 c-14 -5 -72 -15 -130 -24 -111 -17 -136 -30 -126 -64 6
-19 13 -20 58 -15 l51 6 -5 -28 c-18 -94 83 -176 165 -134 53 28 67 50 67 109
0 33 -6 64 -15 77 -11 15 -12 22 -3 25 7 3 9 14 4 31 -7 28 -20 32 -66 17z m8
-87 c31 -28 35 -56 11 -86 -24 -32 -78 -37 -104 -11 -25 25 -16 85 15 101 34
17 54 16 78 -4z"/>
<path d="M2877 6344 c-4 -4 -7 -18 -7 -30 0 -27 -1 -27 160 -44 171 -19 165
-19 168 12 4 31 2 32 -118 47 -133 17 -196 22 -203 15z"/>
<path d="M7286 6219 c-22 -17 -26 -28 -26 -70 0 -28 5 -59 10 -70 8 -13 7 -19
0 -19 -6 0 -10 -12 -8 -27 3 -28 4 -28 85 -31 109 -4 148 6 148 39 0 23 -3 24
-80 27 -86 3 -105 14 -105 58 0 41 25 54 106 54 l74 0 0 30 0 30 -89 0 c-74 0
-92 -3 -115 -21z"/>
<path d="M3002 6197 c-34 -20 -62 -67 -62 -107 0 -106 126 -165 206 -97 24 21
26 30 27 100 1 44 -3 81 -10 88 -17 17 -27 -8 -24 -59 2 -47 -19 -92 -44 -92
-18 0 -24 25 -27 110 -3 57 -6 65 -23 67 -11 2 -30 -3 -43 -10z m38 -107 c0
-62 -7 -71 -34 -44 -20 20 -20 53 0 82 25 36 34 26 34 -38z"/>
<path d="M7440 5929 c0 -8 -21 -10 -69 -7 -53 4 -73 2 -88 -11 -25 -20 -43
-53 -43 -80 0 -20 3 -22 30 -25 6 -1 16 10 23 24 15 29 34 34 93 25 41 -6 44
-9 44 -36 0 -24 4 -29 25 -29 20 0 25 5 25 25 0 21 5 25 30 25 24 0 31 5 36
26 7 28 -7 44 -37 44 -9 0 -19 7 -23 15 -6 17 -46 21 -46 4z"/>
<path d="M2950 5902 c0 -24 6 -30 48 -45 26 -9 56 -17 67 -17 11 -1 28 -7 38
-15 17 -12 13 -17 -57 -55 -61 -34 -76 -46 -76 -65 0 -13 4 -26 9 -29 5 -4 44
13 86 36 42 24 89 49 105 57 25 12 30 20 30 52 0 37 -1 37 -52 49 -29 6 -62
15 -73 20 -20 9 -116 40 -122 40 -2 0 -3 -13 -3 -28z"/>
<path d="M7285 5743 c-57 -30 -94 -115 -74 -166 19 -47 43 -31 47 30 2 41 8
56 25 68 12 8 26 15 31 15 9 0 4 -49 -13 -130 -13 -63 15 -77 84 -44 46 21 67
58 68 114 1 57 -23 93 -76 115 -46 19 -54 18 -92 -2z m112 -93 c18 -37 -8 -89
-45 -90 -10 0 -12 9 -8 30 3 17 9 44 12 61 7 34 23 34 41 -1z"/>
<path d="M3045 5627 c-36 -31 -39 -38 -38 -85 1 -74 50 -131 114 -132 33 0
105 35 113 55 3 9 6 45 6 79 0 49 -5 69 -21 90 -11 14 -24 26 -29 26 -17 0
-21 -40 -6 -69 20 -37 20 -62 2 -86 -12 -16 -16 -17 -30 -6 -9 7 -16 25 -16
40 0 36 -32 121 -45 121 -7 0 -29 -15 -50 -33z m63 -79 c5 -24 13 -51 17 -60
6 -15 2 -18 -19 -18 -20 0 -30 8 -43 34 -15 32 -15 37 1 60 23 36 33 33 44
-16z"/>
<path d="M7174 5473 c-7 -8 -14 -20 -14 -28 0 -13 68 -45 96 -45 26 0 64 -47
64 -78 0 -19 6 -32 16 -36 24 -9 28 -1 27 44 -2 30 2 40 13 40 11 0 14 8 12
27 -3 24 -12 30 -101 59 -86 28 -100 30 -113 17z"/>
<path d="M3114 5351 c-68 -41 -93 -131 -58 -209 57 -126 55 -124 82 -117 23 6
57 19 137 55 11 5 44 19 73 31 29 12 51 27 49 33 -56 138 -81 179 -125 208
-37 24 -118 24 -158 -1z m130 -51 c23 -8 54 -56 70 -106 6 -18 -2 -25 -56 -48
-35 -15 -71 -31 -80 -37 -30 -16 -44 -10 -61 26 -25 52 -22 109 6 136 39 37
76 46 121 29z"/>
<path d="M7042 5143 c-16 -32 -40 -77 -53 -101 -21 -39 -22 -44 -7 -58 22 -22
28 -17 67 61 32 61 36 66 60 60 51 -12 53 -25 18 -93 -27 -54 -30 -64 -17 -72
24 -15 28 -13 54 38 41 78 39 76 74 58 35 -18 35 -20 -10 -104 -30 -56 -29
-72 2 -72 15 0 56 65 118 190 1 3 -13 13 -30 23 -18 9 -80 42 -136 72 -57 30
-105 55 -107 55 -2 0 -17 -26 -33 -57z"/>
<path d="M3410 4924 c-36 -25 -88 -61 -117 -81 -58 -39 -73 -67 -50 -91 14
-13 20 -12 59 17 l43 32 6 -28 c8 -42 30 -71 65 -88 42 -20 57 -19 103 4 43
22 53 33 70 78 12 29 11 38 -7 76 -11 23 -31 49 -46 56 -14 8 -24 17 -24 20 4
14 -14 51 -25 51 -7 0 -41 -21 -77 -46z m102 -71 c24 -21 23 -68 -2 -93 -42
-42 -112 -13 -112 47 0 52 74 83 114 46z"/>
<path d="M6920 4929 c-14 -24 -1 -42 61 -85 47 -32 58 -64 35 -99 -23 -36 -50
-31 -122 20 -62 45 -63 45 -78 24 -20 -30 -13 -41 57 -89 77 -53 128 -58 164
-15 13 15 26 39 29 54 3 15 15 31 27 36 42 19 26 47 -61 113 -46 34 -87 62
-92 62 -5 0 -14 -9 -20 -21z"/>
<path d="M6675 4750 c-41 -17 -96 -86 -102 -127 -7 -54 11 -85 96 -166 76 -71
107 -83 117 -43 3 14 18 29 35 37 46 18 69 55 69 108 0 26 -6 55 -14 66 -22
31 -81 58 -110 51 -30 -7 -86 -53 -86 -71 0 -7 -6 -18 -13 -24 -11 -8 -18 -6
-32 9 -17 18 -17 21 2 52 10 18 33 42 51 53 47 30 37 76 -13 55z m130 -146
c27 -11 37 -51 20 -84 -26 -50 -97 -53 -115 -5 -23 60 34 112 95 89z"/>
<path d="M3597 4680 c-71 -65 -86 -99 -64 -146 10 -19 33 -44 52 -55 19 -12
35 -27 35 -33 0 -7 9 -21 20 -31 21 -19 22 -18 103 63 68 68 80 85 71 99 -18
29 -30 26 -83 -21 -57 -50 -96 -59 -124 -28 -27 30 -20 49 38 109 53 53 55 57
39 74 -10 11 -21 19 -25 19 -4 0 -32 -22 -62 -50z"/>
<path d="M3845 4510 c-9 -15 6 -34 63 -79 53 -42 55 -48 24 -83 -21 -25 -31
-23 -82 22 -51 45 -56 47 -69 22 -8 -16 -1 -26 44 -63 30 -24 54 -49 55 -55 0
-7 -12 -19 -26 -29 -25 -16 -27 -16 -84 29 -32 25 -63 46 -68 46 -10 0 -27
-38 -20 -45 30 -30 165 -125 174 -123 16 4 184 215 184 231 0 15 -155 137
-174 137 -8 0 -18 -4 -21 -10z"/>
<path d="M6516 4485 c-11 -9 -15 -19 -10 -27 7 -12 107 -142 125 -161 11 -13
49 2 49 19 0 18 -115 170 -134 177 -6 3 -20 -1 -30 -8z"/>
<path d="M6423 4413 c-23 -9 -14 -47 22 -100 41 -62 43 -72 12 -101 -39 -37
-61 -29 -112 43 -26 36 -49 65 -52 65 -12 0 -43 -22 -43 -31 0 -23 82 -129
116 -150 36 -22 37 -22 72 -3 19 10 44 31 55 46 11 15 24 25 28 22 11 -7 49
14 49 27 0 13 -120 189 -128 188 -4 0 -13 -3 -19 -6z"/>
<path d="M4086 4343 c-3 -4 -4 -39 0 -79 7 -79 11 -74 -63 -89 -23 -5 -33 -12
-33 -26 0 -28 40 -33 105 -14 32 9 60 13 63 10 7 -6 3 -14 -52 -107 l-27 -47
21 -21 c17 -17 24 -19 36 -9 8 6 14 15 14 20 0 5 29 58 65 119 84 140 83 138
50 150 -23 9 -30 7 -47 -15 -13 -17 -28 -25 -42 -23 -17 2 -22 12 -28 58 -7
60 -38 97 -62 73z"/>
<path d="M6688 4255 c-10 -21 -9 -29 5 -43 24 -23 52 -5 52 34 0 40 -40 47
-57 9z"/>
<path d="M6106 4224 c-49 -18 -76 -41 -76 -66 0 -31 29 -33 59 -4 22 21 37 27
62 24 54 -5 41 -29 -35 -68 -38 -19 -71 -41 -74 -47 -2 -7 10 -26 26 -43 26
-25 38 -30 79 -30 40 0 55 6 86 33 47 40 57 87 32 141 -30 63 -90 86 -159 60z
m99 -164 c-21 -23 -45 -29 -73 -19 -36 13 -25 33 31 55 51 22 52 22 55 2 2
-11 -4 -28 -13 -38z"/>
<path d="M4324 4177 c-9 -26 4 -37 45 -37 46 0 71 -24 71 -68 0 -63 -83 -92
-119 -42 -14 21 -56 27 -66 10 -4 -6 11 -29 33 -50 37 -37 44 -40 95 -40 50 0
57 3 86 35 52 60 53 110 2 167 -23 26 -36 32 -84 36 -45 4 -58 1 -63 -11z"/>
<path d="M5841 4120 c-38 -9 -77 -43 -67 -59 10 -15 39 -14 62 4 24 18 55 19
80 1 26 -20 9 -36 -58 -53 -53 -14 -88 -37 -88 -58 0 -16 51 -61 78 -70 40
-12 90 4 128 40 34 33 36 38 32 83 -6 61 -32 99 -78 112 -39 11 -42 11 -89 0z
m109 -139 c0 -11 -14 -30 -31 -42 -30 -21 -31 -21 -56 -2 -36 26 -34 34 12 49
59 18 75 17 75 -5z"/>
<path d="M4575 4100 c-10 -17 -35 -120 -35 -146 0 -59 59 -104 134 -104 42 0
46 2 46 25 0 22 -4 25 -35 25 -50 0 -87 19 -83 44 2 13 10 20 18 18 8 -2 39
-6 69 -9 48 -6 55 -4 72 18 24 31 24 60 -1 87 -19 20 -57 28 -112 24 -10 -1
-18 5 -18 13 0 17 -45 21 -55 5z m133 -62 c32 -32 -10 -63 -60 -44 -26 10 -37
34 -21 49 11 12 68 8 81 -5z"/>
<path d="M5645 3987 c5 -71 4 -87 -10 -101 -9 -9 -21 -16 -26 -16 -5 0 -9 -11
-9 -25 0 -30 24 -33 52 -8 14 12 21 14 26 6 6 -9 14 -9 32 0 20 10 24 19 21
42 -1 17 -8 39 -14 50 -6 11 -14 45 -17 75 -5 52 -7 55 -34 58 l-28 4 7 -85z"/>
<path d="M4838 4017 c-34 -31 -37 -73 -8 -110 18 -22 18 -26 4 -38 -28 -23
-35 -57 -19 -89 17 -33 76 -55 172 -64 75 -7 76 -5 91 104 19 133 22 175 14
186 -8 13 -51 21 -157 30 -65 6 -72 5 -97 -19z m155 -33 c30 -5 37 -11 37 -29
0 -44 -10 -55 -50 -55 -81 0 -137 45 -94 77 20 14 49 16 107 7z m-17 -134 c35
0 35 -1 32 -37 l-3 -38 -54 2 c-55 1 -81 17 -81 50 0 16 39 34 58 27 8 -2 29
-4 48 -4z"/>
<path d="M5334 4006 c-12 -31 0 -51 31 -51 27 0 30 3 30 30 0 25 -4 30 -28 33
-17 2 -29 -2 -33 -12z"/>
</g>
</svg>
